<svg height="512pt" viewBox="0 -18 512 512" width="512pt" xmlns="http://www.w3.org/2000/svg"><path d="m335.476562 344.277344h-158.953124c-1.992188.066406-3.785157 1.214844-4.691407 2.988281-.902343 1.773437-.773437 3.898437.34375 5.550781l79.476563 121.480469c.941406 1.488281 2.582031 2.390625 4.347656 2.390625s3.40625-.902344 4.347656-2.390625l79.476563-121.480469c1.117187-1.652344 1.246093-3.777344.34375-5.550781-.90625-1.773437-2.699219-2.921875-4.691407-2.988281zm0 0"/><path d="m476.691406 0h-441.382812c-19.5 0-35.308594 15.808594-35.308594 35.308594v229.519531c0 19.5 15.808594 35.308594 35.308594 35.308594h441.382812c19.5 0 35.308594-15.808594 35.308594-35.308594v-229.519531c0-19.5-15.808594-35.308594-35.308594-35.308594zm-247.175781 44.136719c0-4.875 3.953125-8.828125 8.828125-8.828125h35.3125c4.875 0 8.828125 3.953125 8.828125 8.828125v35.3125c0 4.875-3.953125 8.828125-8.828125 8.828125h-35.3125c-4.875 0-8.828125-3.953125-8.828125-8.828125zm0 88.277343c0-4.875 3.953125-8.828124 8.828125-8.828124h35.3125c4.875 0 8.828125 3.953124 8.828125 8.828124v35.308594c0 4.875-3.953125 8.828125-8.828125 8.828125h-35.3125c-4.875 0-8.828125-3.953125-8.828125-8.828125zm-88.273437-88.277343c0-4.875 3.953124-8.828125 8.828124-8.828125h35.308594c4.875 0 8.828125 3.953125 8.828125 8.828125v35.3125c0 4.875-3.953125 8.828125-8.828125 8.828125h-35.308594c-4.875 0-8.828124-3.953125-8.828124-8.828125zm0 88.277343c0-4.875 3.953124-8.828124 8.828124-8.828124h35.308594c4.875 0 8.828125 3.953124 8.828125 8.828124v35.308594c0 4.875-3.953125 8.828125-8.828125 8.828125h-35.308594c-4.875 0-8.828124-3.953125-8.828124-8.828125zm-35.3125 35.308594c0 4.875-3.949219 8.828125-8.828126 8.828125h-35.308593c-4.875 0-8.828125-3.953125-8.828125-8.828125v-35.308594c0-4.875 3.953125-8.828124 8.828125-8.828124h35.308593c4.878907 0 8.828126 3.953124 8.828126 8.828124zm0-88.273437c0 4.875-3.949219 8.828125-8.828126 8.828125h-35.308593c-4.875 0-8.828125-3.953125-8.828125-8.828125v-35.3125c0-4.875 3.953125-8.828125 8.828125-8.828125h35.308593c4.878907 0 8.828126 3.953125 8.828126 8.828125zm264.828124 176.550781c0 4.875-3.953124 8.828125-8.828124 8.828125h-211.859376c-4.875 0-8.828124-3.953125-8.828124-8.828125v-35.308594c0-4.878906 3.953124-8.828125 8.828124-8.828125h211.859376c4.875 0 8.828124 3.949219 8.828124 8.828125zm0-88.277344c0 4.875-3.953124 8.828125-8.828124 8.828125h-35.308594c-4.875 0-8.828125-3.953125-8.828125-8.828125v-35.308594c0-4.875 3.953125-8.828124 8.828125-8.828124h35.308594c4.875 0 8.828124 3.953124 8.828124 8.828124zm0-88.273437c0 4.875-3.953124 8.828125-8.828124 8.828125h-35.308594c-4.875 0-8.828125-3.953125-8.828125-8.828125v-35.3125c0-4.875 3.953125-8.828125 8.828125-8.828125h35.308594c4.875 0 8.828124 3.953125 8.828124 8.828125zm88.277344 88.273437c0 4.875-3.953125 8.828125-8.828125 8.828125h-35.308593c-4.878907 0-8.828126-3.953125-8.828126-8.828125v-35.308594c0-4.875 3.949219-8.828124 8.828126-8.828124h35.308593c4.875 0 8.828125 3.953124 8.828125 8.828124zm0-88.273437c0 4.875-3.953125 8.828125-8.828125 8.828125h-35.308593c-4.878907 0-8.828126-3.953125-8.828126-8.828125v-35.3125c0-4.875 3.949219-8.828125 8.828126-8.828125h35.308593c4.875 0 8.828125 3.953125 8.828125 8.828125zm0 0"/></svg>